<svg width="1200" height="800" viewBox="0 0 1200 800" fill="none" xmlns="http://www.w3.org/2000/svg">
  <rect width="1200" height="800" rx="40" fill="#F7F3EE"/>
  <rect x="80" y="160" width="480" height="420" rx="32" fill="#FFFFFF"/>
  <rect x="620" y="240" width="460" height="320" rx="30" fill="#E8EEE3"/>
  <rect x="680" y="300" width="340" height="180" rx="24" fill="#D1D7C8"/>
  <path d="M240 260C240 236 260 220 288 220H340C368 220 388 236 388 260V420C388 444 368 460 340 460H288C260 460 240 444 240 420V260Z" fill="#A6C3A0"/>
  <path d="M260 280C260 274 264 270 270 270H318C324 270 328 274 328 280V406C328 412 324 416 318 416H270C264 416 260 412 260 406V280Z" fill="#3D6B4F"/>
  <path d="M730 280C730 250 760 230 795 230H850C885 230 915 250 915 280V420C915 450 885 470 850 470H795C760 470 730 450 730 420V280Z" fill="#B7C9A5"/>
  <path d="M755 305C755 297 761 291 769 291H831C839 291 845 297 845 305V395C845 403 839 409 831 409H769C761 409 755 403 755 395V305Z" fill="#375940"/>
  <circle cx="220" cy="520" r="80" fill="#D9E3D1"/>
  <rect x="120" y="560" width="200" height="120" rx="24" fill="#3D6B4F"/>
  <path d="M200 500C200 470 220 450 245 450C270 450 290 470 290 500C290 530 270 550 245 550C220 550 200 530 200 500Z" fill="#F7F3EE"/>
  <path d="M550 100C550 100 610 80 680 100C750 120 800 180 780 260C760 340 700 380 650 410C600 440 520 460 500 420C480 380 520 260 550 220C580 180 540 120 550 100Z" fill="#647A5E"/>
  <path d="M960 80H1040C1068 80 1088 100 1088 128V208C1088 236 1068 256 1040 256H960C932 256 912 236 912 208V128C912 100 932 80 960 80Z" fill="#FFFFFF"/>
  <path d="M972 96H1028V212H972V96Z" fill="#D1D7C8"/>
  <path d="M996 110C1002 110 1007 115 1007 121C1007 127 1002 132 996 132C990 132 985 127 985 121C985 115 990 110 996 110Z" fill="#3D6B4F"/>
  <path d="M908 340C908 280 952 250 1000 250C1048 250 1092 280 1092 340C1092 400 1048 430 1000 430C952 430 908 400 908 340Z" fill="#A8C5A0"/>
  <path d="M937 312C937 300 946 292 958 292H1042C1054 292 1063 300 1063 312C1063 324 1054 332 1042 332H958C946 332 937 324 937 312Z" fill="#3D6B4F"/>
  <path d="M770 560H880C888 560 895 567 895 575C895 583 888 590 880 590H770C762 590 755 583 755 575C755 567 762 560 770 560Z" fill="#B7C9A5"/>
  <path d="M702 540C702 520 718 504 738 504H832C852 504 868 520 868 540V560H702V540Z" fill="#E8EEE3"/>
  <circle cx="840" cy="523" r="12" fill="#3D6B4F"/>
</svg>
